<svg width="2048" height="2048" viewBox="0 0 2048 2048" fill="none" xmlns="http://www.w3.org/2000/svg">
<g clip-path="url(#clip0_5737_1613)">
<path fill-rule="evenodd" clip-rule="evenodd" d="M1022.8 2048C644.508 2047.57 314.265 1842.02 137.312 1536.59H295.667C456.863 1765.2 722.983 1914.54 1023.98 1914.54C1324.98 1914.54 1591.1 1765.2 1752.29 1536.59H1910.65C1733.7 1842.02 1403.45 2047.57 1025.17 2048H1022.8Z" fill="#F2D478"/>
<path fill-rule="evenodd" clip-rule="evenodd" d="M137.348 1536.59C50.072 1385.94 0.0853746 1211 0.015625 1024.39H133.48C133.562 1215.07 193.574 1391.74 295.702 1536.59H137.348ZM2048.02 1024.5C2047.93 1211.07 1997.94 1385.97 1910.68 1536.59H1752.33C1854.46 1391.74 1914.47 1215.07 1914.55 1024.39H2048.02C2048.02 1024.43 2048.02 1024.47 2048.02 1024.5Z" fill="#F2D478"/>
<path fill-rule="evenodd" clip-rule="evenodd" d="M2048.02 1024.39C2048.02 1024.26 2048.02 1024.13 2048.02 1024C2048.02 837.565 1998.19 662.768 1911.14 512.195H1752.88C1854.74 656.992 1914.55 833.511 1914.55 1024C1914.55 1024.13 1914.55 1024.26 1914.55 1024.39H2048.02ZM136.895 512.195C49.8383 662.768 0.015625 837.565 0.015625 1024C0.015625 1024.13 0.0156494 1024.26 0.0156982 1024.39H133.48C133.48 1024.26 133.48 1024.13 133.48 1024C133.48 833.511 193.289 656.992 295.151 512.195H136.895Z" fill="#F2D478"/>
<path fill-rule="evenodd" clip-rule="evenodd" d="M1023.98 0C644.874 0 313.886 206.013 136.859 512.196H295.115C456.256 283.137 722.639 133.465 1023.98 133.465C1325.32 133.465 1591.7 283.137 1752.84 512.196H1911.1C1734.07 206.013 1403.08 0 1023.98 0Z" fill="#71AFE5"/>
</g>
<defs>
<clipPath id="clip0_5737_1613">
<rect width="2048" height="2048" rx="1024" fill="white"/>
</clipPath>
</defs>
</svg>
