<svg width="2048" height="2048" viewBox="0 0 2048 2048" fill="none" xmlns="http://www.w3.org/2000/svg">
<g clip-path="url(#clip0_5736_75)">
<path fill-rule="evenodd" clip-rule="evenodd" d="M1023.49 2048C644.919 2047.82 314.387 1842.2 137.328 1536.59H295.682C456.879 1765.2 722.998 1914.54 1024 1914.54C1324.99 1914.54 1591.11 1765.2 1752.31 1536.59H1910.66C1733.6 1842.2 1403.07 2047.82 1024.5 2048H1023.49Z" fill="#424242"/>
<path fill-rule="evenodd" clip-rule="evenodd" d="M137.333 1536.59C50.0564 1385.94 0.0697686 1211 0 1024.39H133.465C133.547 1215.07 193.558 1391.74 295.687 1536.59H137.333ZM2048 1024.39H1914.54C1914.45 1215.07 1854.44 1391.74 1752.31 1536.59H1910.67C1997.94 1385.94 2047.93 1211 2048 1024.39Z" fill="#8D58B3"/>
<path fill-rule="evenodd" clip-rule="evenodd" d="M2048 1024.39C2048 1024.26 2048 1024.13 2048 1024C2048 837.566 1998.18 662.768 1911.12 512.196H1752.86C1854.73 656.992 1914.54 833.512 1914.54 1024C1914.54 1024.13 1914.54 1024.26 1914.54 1024.39H2048ZM136.88 512.196C49.8227 662.768 0 837.566 0 1024C0 1024.13 2.4396e-05 1024.26 7.31837e-05 1024.39H133.465C133.465 1024.26 133.465 1024.13 133.465 1024C133.465 833.512 193.273 656.992 295.136 512.196H136.88Z" fill="white"/>
<path fill-rule="evenodd" clip-rule="evenodd" d="M1024 0C644.89 0 313.902 206.013 136.875 512.196H295.131C456.272 283.137 722.654 133.465 1024 133.465C1325.34 133.465 1591.72 283.137 1752.86 512.196H1911.12C1734.09 206.013 1403.1 0 1024 0Z" fill="#F2D478"/>
</g>
<defs>
<clipPath id="clip0_5736_75">
<rect width="2048" height="2048" rx="1024" fill="white"/>
</clipPath>
</defs>
</svg>
