<svg width="2048" height="2048" viewBox="0 0 2048 2048" fill="none" xmlns="http://www.w3.org/2000/svg">
<g clip-path="url(#clip0_5736_101)">
<path fill-rule="evenodd" clip-rule="evenodd" d="M1787.26 341.333H1595.89C1441.18 211.589 1241.71 133.465 1024 133.465C806.288 133.465 606.823 211.589 452.111 341.333H260.742C448.244 131.84 720.725 0 1024 0C1327.27 0 1599.76 131.84 1787.26 341.333Z" fill="#F27878"/>
<path fill-rule="evenodd" clip-rule="evenodd" d="M1787.26 341.333C1875.41 439.824 1944.78 555.479 1989.73 682.666H1846.77C1791.46 549.486 1704.75 432.63 1595.89 341.333H1787.26ZM452.109 341.333H260.74C172.588 439.824 103.22 555.479 58.2656 682.666H201.223C256.536 549.486 343.243 432.63 452.109 341.333Z" fill="#E6AB71"/>
<path fill-rule="evenodd" clip-rule="evenodd" d="M1989.75 682.667C2027.48 789.428 2048.02 904.316 2048.02 1024H1914.55C1914.55 903.079 1890.45 787.788 1846.79 682.667L1989.75 682.667ZM58.2832 682.667C20.6088 789.257 0.081564 903.948 0.0157836 1023.42L0.015625 1024H133.48C133.48 903.079 157.581 787.788 201.24 682.667L58.2832 682.667Z" fill="#F2D478"/>
<path fill-rule="evenodd" clip-rule="evenodd" d="M1989.75 1365.34C2027.48 1258.57 2048.02 1143.69 2048.02 1024H1914.55C1914.55 1144.92 1890.45 1260.21 1846.79 1365.34H1989.75ZM0.015625 1024.58C0.0814053 1144.05 20.6087 1258.74 58.283 1365.34H201.24C157.581 1260.21 133.48 1144.92 133.48 1024L0.015625 1024V1024.58Z" fill="#65CC76"/>
<path fill-rule="evenodd" clip-rule="evenodd" d="M260.749 1706.67C172.597 1608.18 103.228 1492.52 58.2734 1365.33H201.231C256.544 1498.51 343.251 1615.37 452.118 1706.67H260.749ZM1989.74 1365.33C1944.78 1492.52 1875.41 1608.18 1787.26 1706.67H1595.89C1704.76 1615.37 1791.47 1498.51 1846.78 1365.33H1989.74Z" fill="#6576CC"/>
<path fill-rule="evenodd" clip-rule="evenodd" d="M1787.26 1706.67C1599.76 1916.16 1327.28 2048 1024.01 2048C720.733 2048 448.251 1916.16 260.75 1706.67H452.119C606.831 1836.41 806.296 1914.53 1024.01 1914.53C1241.72 1914.53 1441.18 1836.41 1595.89 1706.67H1787.26Z" fill="#8D58B3"/>
</g>
<defs>
<clipPath id="clip0_5736_101">
<rect width="2048" height="2048" rx="1024" fill="white"/>
</clipPath>
</defs>
</svg>
