<svg width="2048" height="2048" viewBox="0 0 2048 2048" fill="none" xmlns="http://www.w3.org/2000/svg">
<g clip-path="url(#clip0_5737_1593)">
<path fill-rule="evenodd" clip-rule="evenodd" d="M997.744 2047.67C563.176 2036.73 195.863 1755.06 58.1484 1365H201.085C334.924 1687.62 652.962 1914.54 1024 1914.54C1395.04 1914.54 1713.07 1687.62 1846.91 1365H1989.85C1852.13 1755.06 1484.82 2036.73 1050.25 2047.67H997.744Z" fill="#71AFE5"/>
<path fill-rule="evenodd" clip-rule="evenodd" d="M58.2656 682.67C198.838 284.949 578.142 0 1024 0C1469.86 0 1849.16 284.949 1989.73 682.67H1846.78C1712.86 360.222 1394.91 133.465 1024 133.465C653.089 133.465 335.142 360.222 201.222 682.67H58.2656Z" fill="#D46899"/>
<path fill-rule="evenodd" clip-rule="evenodd" d="M1989.97 1364.67C2027.55 1258.1 2048 1143.44 2048 1024C2048 904.067 2027.38 788.95 1989.5 682H1846.5C1890.33 787.3 1914.53 902.824 1914.53 1024C1914.53 1144.67 1890.53 1259.73 1847.05 1364.67H1989.97ZM0 1025.71C0.193898 1144.53 20.6254 1258.6 58.0319 1364.67H200.948C157.462 1259.73 133.463 1144.67 133.463 1024C133.463 902.824 157.666 787.3 201.5 682H58.502C20.7966 788.443 0.194709 902.975 0 1022.29V1025.71Z" fill="#F2D478"/>
</g>
<defs>
<clipPath id="clip0_5737_1593">
<rect width="2048" height="2048" rx="1024" fill="white"/>
</clipPath>
</defs>
</svg>
