<svg width="2048" height="2048" viewBox="0 0 2048 2048" fill="none" xmlns="http://www.w3.org/2000/svg">
<g clip-path="url(#clip0_5736_120)">
<path fill-rule="evenodd" clip-rule="evenodd" d="M1005.88 2047.85C678.204 2042.16 388.047 1882.56 204.609 1638.25H379.206C541.407 1808.46 770.317 1914.54 1024 1914.54C1277.69 1914.54 1506.6 1808.46 1668.8 1638.25H1843.4C1659.96 1882.56 1369.8 2042.16 1042.12 2047.85H1005.88Z" fill="#71AFE5"/>
<path fill-rule="evenodd" clip-rule="evenodd" d="M204.476 1638.09C115.098 1519 51.0714 1379.8 20.4062 1228.49H157.04C193.807 1384.97 271.846 1525.54 379.042 1638.09H204.476ZM2027.57 1228.49C1996.9 1379.8 1932.87 1519 1843.5 1638.09H1668.93C1776.13 1525.54 1854.16 1384.97 1890.93 1228.49H2027.57Z" fill="#D46899"/>
<path fill-rule="evenodd" clip-rule="evenodd" d="M2027.53 1228.72C2040.95 1162.57 2048 1094.11 2048 1024C2048 953.834 2040.94 885.317 2027.5 819.12H1890.85C1906.34 884.899 1914.54 953.492 1914.54 1024C1914.54 1094.45 1906.35 1162.99 1890.89 1228.72H2027.53ZM0 1024C0 1094.11 7.04575 1162.57 20.4678 1228.72H157.109C141.645 1162.99 133.465 1094.45 133.465 1024C133.465 953.492 141.658 884.899 157.146 819.12H20.4996C7.05688 885.317 0 953.834 0 1024Z" fill="white"/>
<path fill-rule="evenodd" clip-rule="evenodd" d="M1843.1 409.366C1932.58 528.429 1996.71 667.635 2027.47 818.966H1890.82C1853.94 662.451 1775.76 521.874 1668.42 409.366H1843.1ZM379.578 409.366H204.901C115.416 528.429 51.2869 667.635 20.5312 818.966H157.182C194.063 662.451 272.238 521.874 379.578 409.366Z" fill="#D46899"/>
<path fill-rule="evenodd" clip-rule="evenodd" d="M1024 0C689.087 0 391.729 160.78 204.898 409.365H379.575C541.753 239.378 770.506 133.465 1024 133.465C1277.49 133.465 1506.24 239.378 1668.42 409.365H1843.1C1656.27 160.78 1358.91 0 1024 0Z" fill="#71AFE5"/>
</g>
<defs>
<clipPath id="clip0_5736_120">
<rect width="2048" height="2048" rx="1024" fill="white"/>
</clipPath>
</defs>
</svg>
